# xmcd
#
# Track frame offsets:
#	150
#	15736
#	32094
#	46429
#	63937
#	79984
#	101191
#	120126
#	142623
#	158835
#	178540
#	196336
#	215487
#	239078
#	263365
#
# Disc length: 3864 seconds
#
# Revision: 0
# Processed by: cddbd v1.5.2PL0 Copyright (c) Steve Scherf et al.
# Submitted via: EZCDAudioConverter 1.3.4.1
#
DISCID=c30f160f
DTITLE=Todd Rundgren - Definitive Rock Collection 2/2
DYEAR=2006
DGENRE=
TTITLE0=Utopia - Love In Action
TTITLE1=Todd Rundgren - Can We Still Be Friends
TTITLE2=Todd Rundgren - All The Children Sing
TTITLE3=Utopia - The Very Last Time
TTITLE4=Todd Rundgren - Time Heals
TTITLE5=Todd Rundgren - Compassion
TTITLE6=Utopia - Hammer In My Heart
TTITLE7=Todd Rundgren - Hideaway
TTITLE8=Todd Rundgren - Bang The Drum All Day
TTITLE9=Utopia - Crybaby
TTITLE10=Utopia - Mated
TTITLE11=Todd Rundgren - Something To Fall Back On
TTITLE12=Todd Rundgren and Bobby Womack - The Want Of A Nail
TTITLE13=Todd Rundgren - Change Myself
TTITLE14=Todd Rundgren - Sweet
EXTD=
EXTT0=
EXTT1=
EXTT2=
EXTT3=
EXTT4=
EXTT5=
EXTT6=
EXTT7=
EXTT8=
EXTT9=
EXTT10=
EXTT11=
EXTT12=
EXTT13=
EXTT14=
PLAYORDER=
